HIERARCHY
ROOT Hips
{
	OFFSET -0.179506 -22.333345 2.821913
	CHANNELS 6 Xposition Yposition Zposition Zrotation Yrotation Xrotation 
	JOINT LeftUpLeg
	{
		OFFSET 6.951974 -9.140623 -0.681533
		CHANNELS 3 Zrotation Yrotation Xrotation
		JOINT LeftLeg
		{
			OFFSET 3.427654 -37.519855 -0.449580
			CHANNELS 3 Zrotation Yrotation Xrotation
			JOINT LeftFoot
			{
				OFFSET -1.359570 -39.796059 -4.369333
				CHANNELS 3 Zrotation Yrotation Xrotation
				JOINT LeftToe
				{
					OFFSET 2.635814 -5.579078 11.928840
					CHANNELS 3 Zrotation Yrotation Xrotation
					End Site
					{
						OFFSET 0.000000 0.000000 0.000000
					}
				}
			}
		}
	}
	JOINT RightUpLeg
	{
		OFFSET -6.767048 -9.052170 -0.431982
		CHANNELS 3 Zrotation Yrotation Xrotation
		JOINT RightLeg
		{
			OFFSET -3.829005 -38.256897 -0.885003
			CHANNELS 3 Zrotation Yrotation Xrotation
			JOINT RightFoot
			{
				OFFSET 1.577377 -39.841461 -4.231180
				CHANNELS 3 Zrotation Yrotation Xrotation
				JOINT RightToe
				{
					OFFSET -2.537174 -4.814398 12.334795
					CHANNELS 3 Zrotation Yrotation Xrotation
					End Site
					{
						OFFSET 0.000000 0.000000 0.000000
					}
				}
			}
		}
	}
	JOINT Spine
	{
		OFFSET -0.253288 10.896323 -2.669631
		CHANNELS 3 Zrotation Yrotation Xrotation
		JOINT Spine1
		{
			OFFSET 0.548704 13.518043 0.109247
			CHANNELS 3 Zrotation Yrotation Xrotation
			JOINT Spine2
			{
				OFFSET 0.145701 5.292222 2.542457
				CHANNELS 3 Zrotation Yrotation Xrotation
				JOINT Neck
				{
					OFFSET -0.277840 21.387037 -4.285703
					CHANNELS 3 Zrotation Yrotation Xrotation
					JOINT Head
					{
						OFFSET 0.515184 6.496960 5.134897
						CHANNELS 3 Zrotation Yrotation Xrotation
						End Site
						{
							OFFSET 0.000000 0.000000 0.000000
						}
					}
				}
				JOINT LeftShoulder
				{
					OFFSET 7.884473 12.174932 -3.408961
					CHANNELS 3 Zrotation Yrotation Xrotation
					JOINT LeftArm
					{
						OFFSET 9.097692 3.046888 -0.886815
						CHANNELS 3 Zrotation Yrotation Xrotation
						JOINT LeftForeArm
						{
							OFFSET 25.961220 -1.277207 -2.745643
							CHANNELS 3 Zrotation Yrotation Xrotation
							JOINT LeftHand
							{
								OFFSET 24.923361 0.898606 -0.117091
								CHANNELS 3 Zrotation Yrotation Xrotation
								End Site
								{
									OFFSET 0.000000 0.000000 0.000000
								}
							}
						}
					}
				}
				JOINT RightShoulder
				{
					OFFSET -8.175920 11.883285 -3.861528
					CHANNELS 3 Zrotation Yrotation Xrotation
					JOINT RightArm
					{
						OFFSET -9.601238 3.255117 -0.914307
						CHANNELS 3 Zrotation Yrotation Xrotation
						JOINT RightForeArm
						{
							OFFSET -25.374195 -1.332924 -2.140099
							CHANNELS 3 Zrotation Yrotation Xrotation
							JOINT RightHand
							{
								OFFSET -25.529810 0.777228 -0.555919
								CHANNELS 3 Zrotation Yrotation Xrotation
								End Site
								{
									OFFSET 0.000000 0.000000 0.000000
								}
							}
						}
					}
				}
			}
		}
	}
}
MOTION
Frames: 10
Frame Time: 0.033333
-149.596405 122.394196 15.021572 90.331053 0.478747 -179.548179 2.780089 -1.137885 0.734525 -2.065236 -4.833771 5.610279 -2.385143 8.731078 3.002379 nan nan nan -3.452621 -0.962400 -0.295138 5.273750 3.529761 9.913527 5.632996 -2.988114 -3.830593 nan nan nan 2.222162 0.908139 -8.567217 0.509619 -4.745624 -1.498074 2.075674 1.446411 -3.363741 -5.983805 3.834076 -12.607692 4.870077 -0.631959 -25.604955 9.473321 -17.115623 -7.409191 -4.152792 -10.006974 -15.644408 121.019911 -49.446939 -107.236637 -16.665573 -26.978469 -9.165120 -13.319836 20.550035 -5.368284 0.393133 16.361476 -25.731789 -126.295145 56.829389 -110.113099 15.570452 15.208177 -4.943021 
-149.587875 122.329437 15.013870 90.227200 0.521886 -179.773218 2.720172 -1.078458 1.092613 -2.148333 -4.858485 5.499738 -2.286481 8.583844 3.156662 nan nan nan -3.653821 -0.928585 0.270126 5.217133 2.888194 9.504385 5.567703 -2.679003 -3.670514 nan nan nan 2.233645 0.775983 -8.832926 0.277363 -4.835371 -0.408536 1.835138 1.467262 -3.952865 -5.662003 4.638455 -11.876527 5.138380 -0.877160 -26.423206 10.081948 -17.005744 -6.978365 -4.176094 -10.073060 -16.373030 120.754622 -49.434739 -107.048539 -17.939285 -27.706834 -8.319678 -14.614216 20.576658 -4.719199 2.366513 16.542262 -26.095066 -125.773513 56.111475 -109.116074 16.355292 15.521751 -4.914681 
-149.551102 122.362114 15.025855 90.462127 0.378284 -179.999354 2.933130 -0.933887 1.242864 -2.122849 -5.086988 5.517935 -2.094444 8.466444 4.124189 nan nan nan -3.588251 -0.697580 0.762605 5.994579 4.386616 9.817171 7.205386 -2.161359 -8.986476 nan nan nan 2.915989 0.687503 -8.635589 0.156480 -4.967208 -0.323227 2.308994 1.305597 -4.394049 -4.868105 3.704176 -14.633436 2.007350 0.528486 -21.392918 9.142803 -17.241021 -6.217238 -4.430517 -9.309929 -16.783776 120.956927 -49.261291 -107.737617 -18.896045 -27.793927 -7.424702 -15.486896 21.080737 -3.304053 1.884719 17.024860 -27.131358 -125.001285 56.011578 -108.440502 16.955608 14.904697 -3.009508 
-149.558029 122.342735 15.008705 90.493497 0.417913 179.962926 2.989879 -0.921206 1.331464 -2.059185 -4.943405 5.422997 -2.342916 8.344271 4.419974 nan nan nan -3.512895 -0.615708 0.807591 5.871421 4.101612 9.736839 7.230366 -1.969325 -8.340695 nan nan nan 2.722442 0.724674 -8.732688 0.196041 -4.921064 0.018596 2.285388 1.327340 -4.403489 -5.108473 3.831792 -13.621845 3.109473 -0.272843 -23.643335 9.604121 -17.187965 -6.298923 -4.449555 -9.396804 -16.817669 120.930069 -49.261008 -107.860294 -18.851777 -28.107215 -7.426136 -15.488562 21.029461 -3.529288 2.164743 16.661092 -27.062726 -125.128152 55.904321 -108.502076 16.971723 15.257138 -3.157387 
-149.545883 122.314880 15.000635 90.532206 0.509086 179.981329 3.069837 -0.853779 1.360683 -2.066802 -4.895765 5.364158 -2.486610 8.282579 4.388013 nan nan nan -3.433037 -0.488074 0.747506 5.839727 4.081603 9.787097 7.262658 -1.782989 -8.254478 nan nan nan 2.687074 0.741248 -8.760231 0.222601 -4.846303 -0.023330 2.200532 1.373298 -4.325325 -5.398128 3.988345 -12.981049 3.811692 -0.782608 -24.851781 9.994215 -16.956029 -6.498194 -4.947321 -9.808909 -16.512083 121.062195 -49.356784 -107.757588 -17.392958 -28.045785 -8.075111 -15.487760 20.842398 -3.847815 2.588872 16.737433 -26.638867 -125.098214 56.115837 -108.605618 15.505880 15.664176 -4.270382 
-149.537628 122.274788 14.998734 90.552811 0.571052 -179.986110 3.149671 -0.743329 1.339671 -2.132521 -5.075892 5.357488 -2.673572 8.238687 4.236070 nan nan nan -3.334924 -0.432926 0.676402 5.722796 4.009551 9.828392 7.266668 -1.917325 -8.308618 nan nan nan 2.669982 0.755669 -8.723660 0.187505 -4.735845 -0.264465 2.051242 1.437477 -4.172602 -5.692925 3.865640 -12.670434 4.418637 -1.361646 -25.505642 10.410446 -16.749993 -6.765308 -5.637740 -10.369727 -16.027646 121.415301 -49.634439 -107.389036 -13.799555 -27.860141 -9.398360 -15.622551 20.572901 -4.318486 3.180398 16.835513 -26.017466 -124.935872 56.803986 -108.795174 11.632426 16.532071 -6.596456 
-149.538712 122.282562 14.986731 90.582125 0.513373 179.997135 3.161328 -0.789327 1.349226 -2.125383 -5.222057 5.383073 -2.740009 8.310694 4.026280 nan nan nan -3.241607 -0.499914 0.747825 5.609429 3.956909 9.757156 7.247179 -1.976289 -8.338240 nan nan nan 2.672686 0.781345 -8.607443 0.218578 -4.693833 -0.697953 2.048559 1.535543 -3.896683 -5.975051 3.576565 -12.492011 4.714834 -1.271132 -25.619941 10.593070 -16.889931 -6.734147 -6.290022 -10.717102 -16.096334 121.639129 -49.668231 -106.840270 -12.773109 -27.511268 -9.570803 -15.556814 20.502363 -4.520297 2.504867 16.995000 -26.947463 -125.331688 57.412194 -108.171783 10.886117 16.175063 -4.327098 
-149.671631 122.557510 16.268751 90.750422 -0.040951 -179.646264 3.041900 -2.954667 -1.253561 -2.170833 -4.100172 7.550424 -2.212572 8.665274 4.634630 nan nan nan -3.029006 0.159798 -1.651048 5.845606 2.771898 11.923407 6.705873 -2.084523 -9.294626 nan nan nan 3.254161 1.003680 -5.159776 0.300310 -4.735826 -1.254030 1.889782 1.351872 -6.263838 -5.990898 3.087920 -14.467451 4.417965 -1.402144 -24.606143 11.172901 -16.450052 -7.459634 -7.300407 -11.678039 -15.515295 121.144047 -49.370016 -105.233631 -11.333401 -29.185799 -10.690931 -16.568930 19.664860 -5.909729 2.528969 17.849506 -26.357948 -124.370113 57.656781 -107.438017 9.526220 18.193603 -6.086773 
-149.561432 122.754883 15.826511 91.469456 -2.010880 179.727069 3.549165 -3.705132 -0.597053 -1.913499 -5.193388 7.682619 -2.588136 8.584862 4.081931 nan nan nan -2.338687 -1.103943 0.766326 5.888317 2.794816 9.774817 7.243494 -2.516725 -9.209125 nan nan nan 3.787762 1.290809 -5.720628 0.559139 -5.810628 -1.584654 2.070048 0.982880 -5.361804 -7.178163 1.438240 -13.203500 5.108438 -0.554742 -25.248774 10.305666 -18.109643 -6.277764 -7.062109 -10.930050 -17.002752 121.877537 -49.653346 -106.428928 -13.498027 -29.722097 -9.328113 -16.832559 20.523967 -5.541972 0.480643 16.687578 -30.148922 -127.244459 58.651396 -108.958343 13.839805 17.803903 0.884202 
-149.556290 122.743538 15.838649 91.541873 -2.151942 179.701560 3.622457 -3.810936 -0.580986 -1.921214 -5.203047 7.656497 -2.510148 8.520681 4.461031 nan nan nan -2.218654 -1.100318 0.833889 5.866723 2.655360 9.761820 7.428449 -2.510327 -9.371255 nan nan nan 3.918818 1.222649 -5.802019 0.657057 -6.039766 -1.091327 2.038850 0.787064 -5.740305 -7.360296 1.668111 -13.429424 4.935240 -0.477846 -25.094532 11.179697 -18.306611 -4.900834 -7.945918 -9.464765 -18.230996 122.471882 -48.986140 -107.414629 -14.039414 -30.243781 -9.090529 -17.660828 20.747555 -5.122099 1.111202 16.871039 -30.905682 -127.734626 58.551395 -109.254394 14.102065 18.045832 0.861111 
